<svg width="192" height="192" viewBox="0 0 192 192" fill="none" xmlns="http://www.w3.org/2000/svg">
<mask id="mask0_39_2" style="mask-type:alpha" maskUnits="userSpaceOnUse" x="0" y="0" width="192" height="192">
<rect width="192" height="192" fill="#3698FB"/>
</mask>
<g mask="url(#mask0_39_2)">
<rect width="192" height="192" rx="40" fill="#3698FB"/>
<path d="M114.418 147.653C114.418 142.574 110.295 138.457 105.209 138.457C100.123 138.457 96 142.574 96 147.653C96 152.731 100.123 156.848 105.209 156.848C110.295 156.848 114.418 152.731 114.418 147.653Z" fill="white"/>
<path d="M129.586 114.391C129.586 109.312 125.463 105.195 120.377 105.195C115.291 105.195 111.168 109.312 111.168 114.391C111.168 119.469 115.291 123.586 120.377 123.586C125.463 123.586 129.586 119.469 129.586 114.391Z" fill="white"/>
<path d="M163.301 105.195C163.301 100.117 159.178 96 154.093 96C149.007 96 144.884 100.117 144.884 105.195C144.884 110.274 149.007 114.391 154.093 114.391C159.178 114.391 163.301 110.274 163.301 105.195Z" fill="white"/>
<path d="M125.164 147.653C125.164 144.71 125.744 141.796 126.871 139.077C127.999 136.358 129.651 133.887 131.735 131.806C133.818 129.725 136.291 128.074 139.013 126.948C141.734 125.822 144.652 125.242 147.598 125.242H163.301C167.054 125.244 170.683 126.587 173.53 129.03C176.376 131.474 178.253 134.854 178.82 138.56C179.387 142.267 178.606 146.053 176.619 149.234C174.633 152.414 171.571 154.779 167.99 155.9C161.813 157.812 157.768 161.846 155.853 168.001C154.732 171.577 152.367 174.634 149.185 176.619C146.003 178.604 142.215 179.385 138.507 178.822C134.798 178.258 131.414 176.388 128.967 173.548C126.519 170.708 125.17 167.087 125.164 163.34L125.164 147.653Z" fill="white"/>
<path d="M114.418 147.653C114.418 142.574 110.295 138.457 105.209 138.457C100.123 138.457 96 142.574 96 147.653C96 152.731 100.123 156.848 105.209 156.848C110.295 156.848 114.418 152.731 114.418 147.653Z" stroke="white" stroke-width="2" stroke-linecap="round" stroke-linejoin="round"/>
<path d="M129.586 114.391C129.586 109.312 125.463 105.195 120.377 105.195C115.291 105.195 111.168 109.312 111.168 114.391C111.168 119.469 115.291 123.586 120.377 123.586C125.463 123.586 129.586 119.469 129.586 114.391Z" stroke="white" stroke-width="2" stroke-linecap="round" stroke-linejoin="round"/>
<path d="M163.301 105.195C163.301 100.117 159.178 96 154.093 96C149.007 96 144.884 100.117 144.884 105.195C144.884 110.274 149.007 114.391 154.093 114.391C159.178 114.391 163.301 110.274 163.301 105.195Z" stroke="white" stroke-width="2" stroke-linecap="round" stroke-linejoin="round"/>
<path d="M125.164 147.653C125.164 144.71 125.744 141.796 126.871 139.077C127.999 136.358 129.651 133.887 131.735 131.806C133.818 129.725 136.291 128.074 139.013 126.948C141.734 125.822 144.652 125.242 147.598 125.242H163.301C167.054 125.244 170.683 126.587 173.53 129.03C176.376 131.474 178.253 134.854 178.82 138.56C179.387 142.267 178.606 146.053 176.619 149.234C174.633 152.414 171.571 154.779 167.99 155.9C161.813 157.812 157.768 161.846 155.853 168.001C154.732 171.577 152.367 174.634 149.185 176.619C146.003 178.604 142.215 179.385 138.507 178.822C134.798 178.258 131.414 176.388 128.967 173.548C126.519 170.708 125.17 167.087 125.164 163.34L125.164 147.653Z" stroke="white" stroke-width="2" stroke-linecap="round" stroke-linejoin="round"/>
</g>
</svg>
